<?xml version="1.0" encoding="UTF-8" standalone="no"?>
<!DOCTYPE svg PUBLIC "-//W3C//DTD SVG 1.1//EN" "http://www.w3.org/Graphics/SVG/1.1/DTD/svg11.dtd">
<svg width="100%" height="100%" viewBox="0 0 2172 553" version="1.1" xmlns="http://www.w3.org/2000/svg" xmlns:xlink="http://www.w3.org/1999/xlink" xml:space="preserve" xmlns:serif="http://www.serif.com/" style="fill-rule:evenodd;clip-rule:evenodd;stroke-linejoin:round;stroke-miterlimit:2;">
    <g transform="matrix(4.16667,0,0,4.16667,-169,-2512.56)">
        <path d="M498.193,626.054C501.886,622.715 510.044,611.549 528.113,619.88L519.811,631.383L516.844,634.381C511.076,637.468 503.021,637.519 496.917,635.375C496.905,635.377 496.894,635.378 496.882,635.38C496.523,638.899 496.184,642.2 495.882,645.281C495.477,649.449 494.461,653.869 494.101,658.081C493.846,660.983 493.643,663.808 493.413,666.583C493.21,669.357 493.006,672.157 492.802,675.034C492.599,677.884 492.395,680.837 492.191,683.891C491.988,686.971 491.759,690.229 491.504,693.742L491.734,693.793C492.624,690.815 493.668,687.913 494.889,685.011C496.112,682.135 497.461,679.386 498.911,676.79C500.388,674.193 501.966,671.801 503.646,669.612C505.351,667.397 507.108,665.513 508.941,663.91C510.798,662.332 512.682,661.085 514.642,660.168C516.627,659.252 518.613,658.819 520.624,658.819C521.896,658.819 523.067,659.023 524.136,659.43C525.205,659.837 526.122,660.423 526.911,661.186C527.674,661.924 528.285,662.841 528.718,663.91C529.176,664.979 529.38,666.176 529.38,667.499C529.38,669.561 528.921,671.572 528.031,673.506C527.14,675.44 525.867,677.299 524.238,679.081C522.583,680.888 520.624,682.568 518.333,684.172C516.017,685.775 513.471,687.277 510.671,688.626C512.326,691.705 513.827,694.302 515.151,696.491C516.474,698.655 517.696,700.487 518.765,701.963C519.86,703.44 520.827,704.611 521.693,705.501C522.558,706.367 523.372,707.029 524.111,707.462C524.849,707.92 525.536,708.2 526.173,708.353C526.809,708.48 527.471,708.556 528.107,708.556C529.405,708.556 530.755,708.353 532.129,707.945C533.529,707.563 534.929,707.029 536.354,706.393L537.067,708.327C536.176,709.04 535.03,709.778 533.681,710.516C532.307,711.28 530.856,711.941 529.329,712.578C527.801,713.189 526.274,713.698 524.773,714.08C523.271,714.461 521.947,714.665 520.802,714.665C519.453,714.665 518.129,714.182 516.805,713.189C515.456,712.196 514.031,710.694 512.504,708.633C510.976,706.571 509.297,703.949 507.464,700.767C505.606,697.611 503.493,693.818 501.126,689.415L501.279,688.982C504.257,687.99 506.98,686.844 509.424,685.571C511.893,684.324 514.005,682.949 515.787,681.524C517.569,680.073 518.944,678.546 519.911,676.968C520.878,675.364 521.362,673.735 521.362,672.081C521.362,671.394 521.234,670.757 520.98,670.172C520.7,669.586 520.369,669.077 519.936,668.67C519.504,668.263 518.994,667.931 518.409,667.728C517.823,667.499 517.187,667.372 516.525,667.372C514.947,667.372 513.318,667.881 511.664,668.848C509.984,669.815 508.304,671.215 506.65,673.048C504.995,674.88 503.391,677.146 501.839,679.793C500.26,682.466 498.81,685.469 497.461,688.855C496.112,692.24 494.915,695.956 493.846,700.004C492.777,704.051 491.912,708.378 491.275,712.985L483.741,713.952L483.155,713.927C483.308,710.974 483.461,707.742 483.639,704.203C483.843,700.666 484.046,696.898 484.25,692.927C484.454,688.957 484.683,684.808 484.912,680.48C485.166,676.179 485.396,671.775 485.625,667.321C485.853,662.841 486.108,658.336 486.363,653.78C486.696,647.14 487.442,640.465 487.763,633.776C487.992,629.525 488.195,625.478 488.399,621.584C488.424,620.998 488.603,620.489 488.934,620.057C489.239,619.598 489.672,619.267 490.181,619.013C490.69,618.733 491.25,618.555 491.912,618.427C492.548,618.3 493.235,618.224 493.922,618.224C495.424,618.224 496.977,618.631 498.631,619.42C498.373,621.681 498.129,623.853 497.898,625.939C498.008,625.95 498.107,625.987 498.193,626.054ZM431.41,668.394C431.41,667.376 431.333,666.536 431.18,665.824C431.028,665.136 430.799,664.577 430.493,664.169C430.162,663.762 429.78,663.482 429.322,663.304C428.838,663.125 428.278,663.024 427.642,663.024C426.726,663.024 425.657,663.151 424.435,663.406C423.188,663.66 421.762,663.991 420.184,664.424L419.624,661.726C421.38,661.115 423.086,660.554 424.715,660.046C426.344,659.537 427.82,659.078 429.195,658.722C430.569,658.34 431.766,658.061 432.809,657.857C433.853,657.653 434.668,657.551 435.279,657.551C436.729,657.551 437.849,657.984 438.638,658.849C439.453,659.689 439.861,661.166 439.861,663.253C439.861,663.507 439.835,664.093 439.784,664.984C439.733,665.9 439.682,667.045 439.58,668.446C439.504,669.845 439.402,671.424 439.275,673.231C439.147,675.038 438.995,676.947 438.842,678.983C438.664,681.045 438.485,683.132 438.307,685.321C438.104,687.485 437.875,689.649 437.671,691.812L437.875,691.863C439.784,685.449 441.795,680.027 443.958,675.624C446.122,671.22 448.336,667.631 450.551,664.882C452.791,662.133 455.03,660.147 457.245,658.926C459.46,657.729 461.572,657.119 463.583,657.119C464.958,657.119 466.307,657.373 467.605,657.882C468.903,658.416 470.048,659.256 471.041,660.376C472.059,661.522 472.848,662.998 473.459,664.806C474.045,666.613 474.35,668.802 474.35,671.347C474.35,672.085 474.299,673.104 474.223,674.351C474.146,675.598 474.019,676.998 473.892,678.55C473.79,680.077 473.637,681.732 473.485,683.438C473.306,685.169 473.18,686.874 473.052,688.528C472.925,690.209 472.823,691.787 472.721,693.288C472.645,694.79 472.593,696.114 472.593,697.234C472.593,699.169 472.67,700.746 472.848,701.968C473.001,703.19 473.281,704.132 473.637,704.844C474.019,705.557 474.503,706.04 475.139,706.295C475.75,706.575 476.514,706.702 477.404,706.702C478.703,706.702 480.051,706.524 481.426,706.168C482.826,705.786 484.226,705.303 485.652,704.641L486.365,706.575C485.473,707.313 484.328,708.051 482.954,708.789C481.604,709.528 480.154,710.215 478.652,710.826C477.15,711.462 475.648,711.972 474.172,712.354C472.67,712.735 471.347,712.913 470.201,712.913C468.878,712.913 467.809,712.557 467.044,711.844C466.281,711.131 465.696,710.139 465.314,708.892C464.932,707.644 464.678,706.194 464.576,704.539C464.448,702.859 464.397,701.077 464.397,699.169C464.397,696.827 464.474,694.434 464.627,691.939C464.805,689.47 464.983,687.129 465.187,684.888C465.39,682.649 465.568,680.612 465.721,678.779C465.874,676.972 465.95,675.496 465.95,674.401C465.95,671.5 465.416,669.362 464.321,667.987C463.226,666.587 461.776,665.9 459.969,665.9C458.518,665.9 456.991,666.511 455.412,667.733C453.809,668.954 452.231,670.635 450.652,672.747C449.074,674.886 447.572,677.38 446.096,680.282C444.646,683.183 443.347,686.314 442.176,689.674C441.006,693.034 440.038,696.572 439.275,700.237C438.485,703.928 438.002,707.594 437.824,711.284L430.009,712.251L429.424,712.226C429.628,709.859 429.806,707.288 429.984,704.488C430.162,701.713 430.315,698.888 430.468,696.012C430.62,693.136 430.747,690.31 430.85,687.485C430.977,684.66 431.078,682.012 431.155,679.569C431.231,677.125 431.307,674.936 431.333,673.002C431.384,671.042 431.41,669.515 431.41,668.394ZM406.893,672.951C406.893,670.991 406.563,669.285 405.926,667.835C405.265,666.409 404.425,665.213 403.381,664.296C402.337,663.38 401.167,662.693 399.843,662.26C398.52,661.802 397.196,661.573 395.898,661.573C394.116,661.573 392.64,661.776 391.418,662.133C390.196,662.514 389.203,663.024 388.44,663.66C387.702,664.322 387.141,665.086 386.811,665.951C386.48,666.842 386.301,667.809 386.301,668.827C386.301,669.998 386.53,671.22 386.963,672.416C387.396,673.613 388.032,674.783 388.872,675.929L388.72,676.336C387.32,677.049 385.894,677.38 384.443,677.38C383.604,677.38 382.814,677.252 382.076,676.998C381.338,676.743 380.702,676.362 380.167,675.853C379.633,675.369 379.225,674.758 378.895,674.045C378.589,673.307 378.436,672.518 378.436,671.602C378.436,670.151 378.793,668.776 379.506,667.478C380.218,666.18 381.16,665.009 382.306,663.94C383.476,662.871 384.851,661.904 386.378,661.064C387.93,660.224 389.509,659.511 391.163,658.926C392.792,658.34 394.447,657.882 396.102,657.576C397.756,657.271 399.283,657.119 400.709,657.119C403.305,657.119 405.545,657.45 407.403,658.162C409.235,658.849 410.737,659.867 411.908,661.191C413.054,662.514 413.893,664.118 414.428,666.027C414.963,667.911 415.243,670.049 415.243,672.441C415.243,674.071 415.167,675.878 415.039,677.838C414.886,679.798 414.734,681.86 414.581,683.998C414.403,686.161 414.249,688.376 414.097,690.667C413.97,692.957 413.893,695.223 413.893,697.488C413.893,701.077 414.555,703.75 415.905,705.557C417.228,707.365 418.959,708.255 421.122,708.255C423.057,708.255 425.195,707.568 427.537,706.143L428.631,707.746C426.951,709.401 425.144,710.673 423.184,711.539C421.224,712.404 419.163,712.862 416.999,712.862C415.37,712.862 413.893,712.583 412.519,712.022C411.145,711.488 409.974,710.673 408.981,709.579C407.988,708.51 407.199,707.135 406.664,705.506C406.13,703.852 405.85,701.968 405.85,699.805C405.85,699.143 405.876,698.506 405.901,697.87C405.926,697.208 406.028,696.521 406.13,695.808L405.926,695.808C404.858,697.946 403.61,700.059 402.21,702.121C400.81,704.208 399.258,706.066 397.578,707.695C395.898,709.325 394.116,710.623 392.207,711.64C390.324,712.633 388.312,713.142 386.225,713.142C384.52,713.142 382.941,712.862 381.542,712.251C380.116,711.666 378.895,710.826 377.902,709.783C376.884,708.739 376.12,707.517 375.56,706.092C375,704.641 374.72,703.088 374.72,701.408C374.72,699.219 375.102,697.234 375.916,695.426C376.731,693.645 377.851,692.041 379.276,690.616C380.702,689.216 382.407,687.994 384.392,686.95C386.403,685.932 388.567,685.066 390.883,684.38C393.225,683.692 395.694,683.183 398.316,682.852C400.912,682.521 403.585,682.343 406.283,682.343C406.461,680.791 406.614,679.264 406.715,677.812C406.843,676.336 406.893,674.707 406.893,672.951ZM383.985,698.558C383.985,699.55 384.112,700.467 384.316,701.357C384.52,702.223 384.851,703.012 385.309,703.673C385.767,704.361 386.352,704.87 387.065,705.252C387.778,705.659 388.643,705.837 389.636,705.837C390.756,705.837 391.901,705.583 393.098,705.048C394.294,704.539 395.465,703.826 396.611,702.884C397.781,701.968 398.876,700.874 399.945,699.601C400.989,698.303 401.93,696.928 402.795,695.401C403.636,693.873 404.323,692.296 404.883,690.616C405.443,688.936 405.825,687.205 406.003,685.449C404.145,685.499 402.337,685.601 400.505,685.805C398.698,685.983 396.967,686.288 395.337,686.67C393.709,687.078 392.207,687.587 390.807,688.249C389.432,688.885 388.236,689.699 387.218,690.641C386.225,691.609 385.436,692.728 384.851,694.052C384.291,695.35 383.985,696.852 383.985,698.558ZM497.625,627.895C497.492,629.104 497.364,630.283 497.24,631.433C500.066,628.036 506.525,622.771 511.56,622.926C507.911,619.959 501.005,626.347 497.625,627.895" style="fill:rgb(90,173,64);fill-rule:nonzero;"/>
    </g>
    <g transform="matrix(4.16667,0,0,4.16667,-169,-2328.4)">
        <path d="M314.506,653.621C314.659,655.504 315.168,657.133 316.008,658.507C316.848,659.882 317.866,661.002 319.088,661.868C320.31,662.733 321.659,663.369 323.135,663.802C324.611,664.235 326.088,664.439 327.539,664.439C328.914,664.439 330.237,664.26 331.484,663.878C332.757,663.496 333.877,662.962 334.844,662.275C335.811,661.588 336.6,660.722 337.186,659.704C337.771,658.686 338.051,657.54 338.051,656.268C338.051,654.944 337.746,653.799 337.135,652.806C336.499,651.813 335.684,650.897 334.641,650.082C333.597,649.268 332.376,648.504 331,647.817C329.626,647.104 328.175,646.392 326.699,645.679C325.375,645.068 324.052,644.432 322.728,643.795C321.379,643.159 320.107,642.471 318.859,641.733C317.612,640.995 316.441,640.181 315.372,639.316C314.277,638.45 313.335,637.482 312.547,636.414C311.732,635.37 311.096,634.174 310.637,632.876C310.179,631.577 309.95,630.126 309.95,628.523C309.95,626.818 310.255,625.24 310.841,623.789C311.426,622.363 312.241,621.065 313.285,619.894C314.303,618.748 315.499,617.731 316.874,616.865C318.223,616 319.674,615.262 321.201,614.676C322.754,614.091 324.332,613.658 325.961,613.378C327.59,613.098 329.168,612.945 330.721,612.945C332.706,612.945 334.59,613.175 336.371,613.607C338.127,614.04 339.68,614.676 341.029,615.491C342.353,616.331 343.397,617.349 344.186,618.545C344.975,619.741 345.357,621.065 345.357,622.566C345.357,623.127 345.28,623.763 345.076,624.425C344.873,625.112 344.542,625.723 344.059,626.309C343.6,626.894 342.964,627.377 342.2,627.785C341.436,628.192 340.495,628.396 339.375,628.421C338.331,628.421 337.237,628.269 336.091,627.937L335.964,627.555C336.321,626.767 336.575,626.028 336.728,625.367C336.855,624.679 336.932,624.069 336.932,623.509C336.906,622.363 336.626,621.396 336.066,620.607C335.506,619.818 334.793,619.181 333.953,618.698C333.113,618.189 332.171,617.832 331.153,617.603C330.11,617.374 329.092,617.272 328.099,617.272C326.343,617.272 324.765,617.502 323.365,617.985C321.964,618.443 320.793,619.08 319.852,619.869C318.884,620.658 318.147,621.523 317.637,622.541C317.128,623.534 316.874,624.552 316.874,625.621C316.874,626.996 317.23,628.218 317.968,629.286C318.681,630.381 319.648,631.374 320.845,632.29C322.015,633.181 323.39,634.046 324.943,634.836C326.495,635.625 328.124,636.414 329.83,637.228C331.713,638.119 333.597,639.035 335.455,640.003C337.313,640.944 338.968,642.039 340.444,643.261C341.921,644.482 343.091,645.882 344.008,647.46C344.924,649.039 345.357,650.897 345.357,653.035C345.357,655.581 344.797,657.871 343.677,659.856C342.531,661.842 341.029,663.522 339.146,664.897C337.262,666.246 335.073,667.289 332.63,668.002C330.186,668.715 327.641,669.071 325.019,669.071C323.695,669.071 322.321,668.969 320.921,668.766C319.521,668.562 318.172,668.256 316.848,667.875C315.525,667.468 314.277,666.984 313.107,666.398C311.91,665.813 310.892,665.151 310.001,664.388C309.11,663.624 308.423,662.784 307.914,661.842C307.405,660.926 307.15,659.882 307.15,658.762C307.15,657.795 307.354,656.98 307.761,656.319C308.169,655.631 308.703,655.097 309.39,654.665C310.052,654.257 310.816,653.926 311.63,653.722C312.47,653.518 313.335,653.392 314.201,653.366" style="fill:rgb(90,173,64);fill-rule:nonzero;"/>
    </g>
    <g transform="matrix(4.16667,0,0,4.16667,-169,-2492.03)">
        <path d="M367.195,614.402C366.711,618.289 366.228,622.294 365.744,626.369C365.26,630.444 364.803,634.566 364.344,638.758C363.911,642.927 363.504,647.119 363.148,651.335C362.766,655.527 362.435,659.673 362.18,663.771C361.901,667.846 361.697,671.85 361.544,675.785C361.391,679.72 361.315,683.49 361.315,687.097C361.315,689.368 361.341,691.313 361.417,692.929C361.468,694.567 361.57,695.926 361.697,697.05C361.85,698.174 362.028,699.088 362.257,699.767C362.511,700.446 362.791,700.985 363.148,701.336C363.479,701.71 363.911,701.945 364.37,702.086C364.853,702.203 365.413,702.272 366.05,702.272C367.246,702.272 368.518,702.109 369.919,701.781C371.293,701.43 372.693,700.985 374.093,700.376L374.805,702.155C373.915,702.835 372.795,703.513 371.446,704.193C370.097,704.872 368.671,705.505 367.169,706.066C365.668,706.652 364.216,707.121 362.791,707.472C361.366,707.823 360.119,707.987 359.075,707.987C357.726,707.987 356.683,707.683 355.893,707.05C355.104,706.418 354.519,705.411 354.112,703.982C353.679,702.577 353.424,700.727 353.322,698.432C353.195,696.161 353.144,693.397 353.144,690.118C353.144,688.923 353.195,687.237 353.272,685.036C353.348,682.811 353.45,680.258 353.577,677.331C353.705,674.404 353.883,671.194 354.035,667.728C354.214,664.239 354.417,660.656 354.595,656.932C354.799,653.209 355.003,649.461 355.232,645.69C355.461,641.896 355.69,638.243 355.919,634.707C356.123,631.17 356.352,627.844 356.555,624.706C356.734,621.568 356.937,618.804 357.115,616.392C357.115,615.853 357.293,615.386 357.624,614.988C357.955,614.566 358.362,614.261 358.871,614.027C359.381,613.769 359.966,613.605 360.577,613.488C361.213,613.371 361.875,613.301 362.511,613.301C364.014,613.301 365.566,613.676 367.195,614.402" style="fill:rgb(90,173,64);fill-rule:nonzero;"/>
    </g>
    <g transform="matrix(4.16667,0,0,4.16667,-169,-2335.49)">
        <path d="M294.987,626.446C294.987,625.301 294.809,624.231 294.402,623.239C294.02,622.246 293.485,621.381 292.798,620.642C292.136,619.904 291.322,619.319 290.355,618.912C289.413,618.479 288.395,618.275 287.301,618.275C285.697,618.275 284.221,618.555 282.923,619.141C281.598,619.701 280.403,620.464 279.359,621.457C278.315,622.45 277.399,623.595 276.61,624.893C275.821,626.191 275.133,627.592 274.573,629.042C274.013,630.519 273.556,632.02 273.224,633.547C272.868,635.1 272.614,636.602 272.461,638.078C275.999,637.824 279.155,637.391 281.955,636.78C284.755,636.169 287.122,635.38 289.031,634.439C290.966,633.471 292.442,632.326 293.46,631.002C294.478,629.679 294.987,628.152 294.987,626.446ZM302.013,656.38C302.14,656.456 302.344,656.558 302.573,656.685C302.828,656.838 303.031,656.991 303.234,657.143C303.438,657.296 303.616,657.474 303.744,657.653C303.896,657.856 303.973,658.034 303.973,658.212C303.973,658.314 303.947,658.39 303.871,658.492C302.471,660.452 300.969,662.132 299.366,663.558C297.762,664.983 296.108,666.179 294.376,667.147C292.646,668.089 290.889,668.801 289.107,669.26C287.301,669.717 285.544,669.946 283.813,669.946C280.835,669.946 278.086,669.336 275.592,668.114C273.123,666.892 270.984,665.238 269.177,663.125C267.395,661.012 265.995,658.543 265.003,655.693C263.985,652.842 263.475,649.787 263.475,646.529C263.475,643.882 263.781,641.209 264.367,638.562C264.951,635.889 265.792,633.369 266.886,630.951C268.006,628.533 269.356,626.294 270.933,624.206C272.537,622.144 274.345,620.337 276.355,618.81C278.391,617.283 280.606,616.086 283.05,615.221C285.467,614.355 288.064,613.897 290.864,613.897C292.697,613.897 294.453,614.152 296.108,614.661C297.787,615.145 299.238,615.857 300.486,616.799C301.758,617.741 302.751,618.886 303.489,620.235C304.227,621.61 304.609,623.162 304.609,624.919C304.609,627.439 303.795,629.653 302.14,631.537C300.486,633.446 298.195,635.049 295.293,636.347C292.391,637.671 288.955,638.74 285.009,639.555C281.09,640.344 276.813,640.955 272.257,641.362L272.257,641.973C272.257,645.155 272.639,648.082 273.453,650.704C274.268,653.351 275.388,655.59 276.788,657.474C278.213,659.358 279.868,660.809 281.802,661.852C283.711,662.896 285.773,663.43 287.988,663.43C290.227,663.43 292.519,662.871 294.86,661.776C297.202,660.656 299.595,658.874 302.013,656.38ZM228.591,654.471C228.744,656.354 229.253,657.983 230.093,659.358C230.933,660.732 231.951,661.852 233.172,662.718C234.394,663.583 235.743,664.219 237.22,664.652C238.696,665.085 240.172,665.289 241.623,665.289C242.998,665.289 244.322,665.11 245.569,664.728C246.841,664.347 247.961,663.812 248.928,663.125C249.896,662.438 250.685,661.572 251.27,660.554C251.856,659.536 252.135,658.39 252.135,657.118C252.135,655.794 251.83,654.649 251.219,653.656C250.583,652.664 249.769,651.747 248.725,650.932C247.681,650.118 246.46,649.354 245.085,648.667C243.711,647.954 242.26,647.242 240.783,646.529C239.46,645.918 238.136,645.282 236.813,644.646C235.463,644.009 234.191,643.322 232.944,642.584C231.696,641.846 230.526,641.031 229.456,640.166C228.362,639.3 227.42,638.333 226.631,637.264C225.816,636.22 225.18,635.024 224.722,633.726C224.264,632.428 224.034,630.977 224.034,629.373C224.034,627.668 224.34,626.09 224.926,624.639C225.511,623.213 226.326,621.915 227.369,620.744C228.387,619.599 229.583,618.581 230.958,617.715C232.307,616.85 233.758,616.112 235.285,615.526C236.838,614.941 238.416,614.508 240.045,614.228C241.674,613.948 243.253,613.795 244.805,613.795C246.79,613.795 248.674,614.025 250.456,614.457C252.212,614.89 253.765,615.526 255.114,616.341C256.438,617.181 257.481,618.199 258.27,619.396C259.059,620.591 259.441,621.915 259.441,623.417C259.441,623.977 259.364,624.613 259.161,625.275C258.957,625.962 258.627,626.573 258.143,627.159C257.684,627.744 257.048,628.228 256.285,628.635C255.521,629.042 254.579,629.246 253.459,629.271C252.416,629.271 251.321,629.119 250.176,628.787L250.048,628.406C250.405,627.617 250.659,626.879 250.812,626.217C250.939,625.53 251.016,624.919 251.016,624.359C250.99,623.213 250.71,622.246 250.15,621.457C249.59,620.668 248.878,620.031 248.038,619.548C247.198,619.039 246.256,618.682 245.238,618.453C244.194,618.224 243.176,618.123 242.183,618.123C240.427,618.123 238.849,618.352 237.449,618.835C236.049,619.293 234.878,619.93 233.937,620.719C232.969,621.508 232.231,622.373 231.722,623.391C231.213,624.384 230.958,625.402 230.958,626.472C230.958,627.846 231.314,629.068 232.053,630.136C232.765,631.231 233.733,632.224 234.929,633.141C236.1,634.031 237.474,634.897 239.027,635.686C240.579,636.475 242.209,637.264 243.914,638.078C245.797,638.969 247.681,639.886 249.54,640.853C251.397,641.794 253.052,642.889 254.529,644.111C256.005,645.333 257.176,646.732 258.092,648.31C259.008,649.889 259.441,651.747 259.441,653.885C259.441,656.431 258.881,658.722 257.761,660.707C256.616,662.692 255.114,664.372 253.23,665.747C251.346,667.096 249.158,668.139 246.714,668.852C244.27,669.565 241.725,669.921 239.103,669.921C237.779,669.921 236.405,669.819 235.005,669.616C233.605,669.412 232.256,669.107 230.933,668.725C229.609,668.318 228.362,667.834 227.191,667.248C225.995,666.663 224.976,666.001 224.086,665.238C223.195,664.474 222.508,663.634 221.998,662.692C221.489,661.776 221.235,660.732 221.235,659.612C221.235,658.645 221.439,657.831 221.846,657.169C222.253,656.482 222.787,655.947 223.474,655.515C224.137,655.107 224.9,654.776 225.715,654.573C226.554,654.369 227.42,654.242 228.285,654.216L228.591,654.471ZM166.301,625.046C166.301,624.028 166.224,623.188 166.071,622.475C165.919,621.788 165.69,621.228 165.385,620.82C165.053,620.413 164.671,620.134 164.214,619.956C163.73,619.777 163.17,619.675 162.533,619.675C161.617,619.675 160.548,619.802 159.326,620.057C158.079,620.312 156.653,620.642 155.075,621.075L154.515,618.377C156.271,617.766 157.977,617.206 159.606,616.697C161.235,616.188 162.711,615.73 164.086,615.374C165.461,614.992 166.657,614.712 167.7,614.508C168.744,614.304 169.559,614.203 170.17,614.203C171.62,614.203 172.74,614.635 173.529,615.501C174.344,616.341 174.752,617.817 174.752,619.904C174.752,620.158 174.726,620.744 174.675,621.635C174.624,622.552 174.573,623.697 174.471,625.097C174.395,626.497 174.293,628.075 174.166,629.882C174.039,631.69 173.886,633.598 173.733,635.635C173.555,637.697 173.377,639.784 173.199,641.973C172.995,644.136 172.766,646.3 172.563,648.464L172.766,648.514C174.675,642.1 176.686,636.679 178.849,632.275C181.013,627.871 183.227,624.282 185.442,621.534C187.682,618.785 189.922,616.799 192.136,615.577C194.351,614.381 196.463,613.77 198.474,613.77C199.849,613.77 201.198,614.025 202.496,614.533C203.794,615.068 204.939,615.908 205.932,617.028C206.95,618.173 207.739,619.65 208.35,621.457C208.936,623.264 209.241,625.453 209.241,627.999C209.241,628.737 209.19,629.755 209.114,631.002C209.038,632.249 208.911,633.649 208.783,635.202C208.682,636.729 208.528,638.384 208.376,640.089C208.198,641.82 208.071,643.525 207.943,645.18C207.816,646.86 207.714,648.438 207.612,649.94C207.536,651.442 207.485,652.765 207.485,653.885C207.485,655.82 207.561,657.398 207.739,658.62C207.892,659.842 208.172,660.783 208.528,661.496C208.911,662.209 209.394,662.692 210.03,662.947C210.641,663.227 211.405,663.354 212.295,663.354C213.594,663.354 214.943,663.176 216.317,662.82C217.717,662.438 219.117,661.954 220.543,661.293L221.256,663.227C220.365,663.965 219.219,664.703 217.845,665.441C216.496,666.179 215.045,666.866 213.543,667.477C212.041,668.114 210.539,668.623 209.063,669.005C207.561,669.387 206.238,669.565 205.092,669.565C203.769,669.565 202.7,669.208 201.936,668.496C201.172,667.783 200.587,666.79 200.205,665.543C199.824,664.296 199.569,662.845 199.467,661.19C199.34,659.51 199.289,657.729 199.289,655.82C199.289,653.478 199.365,651.085 199.518,648.591C199.696,646.122 199.874,643.78 200.078,641.54C200.282,639.3 200.46,637.264 200.612,635.431C200.765,633.624 200.841,632.148 200.841,631.053C200.841,628.152 200.307,626.013 199.213,624.639C198.118,623.239 196.667,622.552 194.86,622.552C193.409,622.552 191.882,623.162 190.304,624.384C188.7,625.606 187.122,627.286 185.543,629.398C183.965,631.537 182.464,634.031 180.987,636.933C179.537,639.835 178.239,642.965 177.068,646.326C175.897,649.685 174.93,653.224 174.166,656.889C173.377,660.579 172.893,664.245 172.715,667.936L164.9,668.903L164.315,668.878C164.519,666.51 164.697,663.939 164.875,661.14C165.053,658.365 165.206,655.54 165.359,652.664C165.511,649.787 165.639,646.961 165.741,644.136C165.868,641.311 165.97,638.664 166.046,636.22C166.123,633.776 166.198,631.588 166.224,629.653C166.275,627.693 166.301,626.166 166.301,625.046ZM144.995,626.446C144.995,625.301 144.817,624.231 144.409,623.239C144.028,622.246 143.493,621.381 142.806,620.642C142.144,619.904 141.329,619.319 140.362,618.912C139.42,618.479 138.402,618.275 137.308,618.275C135.704,618.275 134.228,618.555 132.93,619.141C131.606,619.701 130.41,620.464 129.366,621.457C128.322,622.45 127.406,623.595 126.617,624.893C125.828,626.191 125.141,627.592 124.581,629.042C124.021,630.519 123.563,632.02 123.232,633.547C122.875,635.1 122.621,636.602 122.468,638.078C126.006,637.824 129.162,637.391 131.962,636.78C134.762,636.169 137.13,635.38 139.039,634.439C140.973,633.471 142.449,632.326 143.468,631.002C144.486,629.679 144.995,628.152 144.995,626.446ZM152.02,656.38C152.147,656.456 152.351,656.558 152.58,656.685C152.835,656.838 153.038,656.991 153.241,657.143C153.446,657.296 153.624,657.474 153.751,657.653C153.903,657.856 153.98,658.034 153.98,658.212C153.98,658.314 153.955,658.39 153.878,658.492C152.478,660.452 150.976,662.132 149.373,663.558C147.769,664.983 146.115,666.179 144.384,667.147C142.653,668.089 140.896,668.801 139.115,669.26C137.308,669.717 135.551,669.946 133.821,669.946C130.842,669.946 128.093,669.336 125.599,668.114C123.13,666.892 120.992,665.238 119.184,663.125C117.403,661.012 116.003,658.543 115.01,655.693C113.992,652.842 113.483,649.787 113.483,646.529C113.483,643.882 113.788,641.209 114.374,638.562C114.959,635.889 115.799,633.369 116.894,630.951C118.014,628.533 119.363,626.294 120.941,624.206C122.544,622.144 124.352,620.337 126.362,618.81C128.399,617.283 130.613,616.086 133.057,615.221C135.474,614.355 138.071,613.897 140.871,613.897C142.704,613.897 144.46,614.152 146.115,614.661C147.794,615.145 149.245,615.857 150.493,616.799C151.765,617.741 152.758,618.886 153.496,620.235C154.234,621.61 154.616,623.162 154.616,624.919C154.616,627.439 153.802,629.653 152.147,631.537C150.493,633.446 148.202,635.049 145.3,636.347C142.398,637.671 138.962,638.74 135.017,639.555C131.097,640.344 126.821,640.955 122.265,641.362L122.265,641.973C122.265,645.155 122.646,648.082 123.461,650.704C124.275,653.351 125.395,655.59 126.795,657.474C128.221,659.358 129.875,660.809 131.81,661.852C133.718,662.896 135.78,663.43 137.995,663.43C140.235,663.43 142.526,662.871 144.868,661.776C147.209,660.656 149.602,658.874 152.02,656.38ZM79.165,654.471C79.318,656.354 79.827,657.983 80.667,659.358C81.507,660.732 82.525,661.852 83.747,662.718C84.969,663.583 86.317,664.219 87.794,664.652C89.27,665.085 90.747,665.289 92.197,665.289C93.572,665.289 94.895,665.11 96.143,664.728C97.415,664.347 98.535,663.812 99.503,663.125C100.47,662.438 101.259,661.572 101.844,660.554C102.43,659.536 102.71,658.39 102.71,657.118C102.71,655.794 102.404,654.649 101.794,653.656C101.157,652.664 100.343,651.747 99.299,650.932C98.255,650.118 97.034,649.354 95.659,648.667C94.285,647.954 92.834,647.242 91.358,646.529C90.034,645.918 88.71,645.282 87.387,644.646C86.038,644.009 84.765,643.322 83.518,642.584C82.27,641.846 81.1,641.031 80.03,640.166C78.936,639.3 77.994,638.333 77.205,637.264C76.39,636.22 75.754,635.024 75.296,633.726C74.838,632.428 74.609,630.977 74.609,629.373C74.609,627.668 74.914,626.09 75.5,624.639C76.085,623.213 76.899,621.915 77.943,620.744C78.961,619.599 80.158,618.581 81.532,617.715C82.881,616.85 84.332,616.112 85.86,615.526C87.412,614.941 88.99,614.508 90.619,614.228C92.248,613.948 93.827,613.795 95.379,613.795C97.364,613.795 99.248,614.025 101.03,614.457C102.786,614.89 104.339,615.526 105.688,616.341C107.012,617.181 108.055,618.199 108.844,619.396C109.633,620.591 110.015,621.915 110.015,623.417C110.015,623.977 109.939,624.613 109.735,625.275C109.532,625.962 109.201,626.573 108.717,627.159C108.259,627.744 107.623,628.228 106.859,628.635C106.095,629.042 105.153,629.246 104.034,629.271C102.99,629.271 101.895,629.119 100.75,628.787L100.622,628.406C100.979,627.617 101.234,626.879 101.387,626.217C101.514,625.53 101.59,624.919 101.59,624.359C101.565,623.213 101.284,622.246 100.725,621.457C100.165,620.668 99.452,620.031 98.612,619.548C97.772,619.039 96.83,618.682 95.812,618.453C94.768,618.224 93.75,618.123 92.758,618.123C91.001,618.123 89.423,618.352 88.023,618.835C86.623,619.293 85.452,619.93 84.51,620.719C83.543,621.508 82.805,622.373 82.296,623.391C81.787,624.384 81.532,625.402 81.532,626.472C81.532,627.846 81.888,629.068 82.627,630.136C83.339,631.231 84.307,632.224 85.503,633.141C86.674,634.031 88.048,634.897 89.601,635.686C91.154,636.475 92.783,637.264 94.488,638.078C96.372,638.969 98.255,639.886 100.114,640.853C101.972,641.794 103.626,642.889 105.103,644.111C106.579,645.333 107.75,646.732 108.666,648.31C109.583,649.889 110.015,651.747 110.015,653.885C110.015,656.431 109.455,658.722 108.335,660.707C107.19,662.692 105.688,664.372 103.805,665.747C101.921,667.096 99.732,668.139 97.288,668.852C94.844,669.565 92.299,669.921 89.677,669.921C88.354,669.921 86.979,669.819 85.579,669.616C84.179,669.412 82.831,669.107 81.507,668.725C80.183,668.318 78.936,667.834 77.765,667.248C76.569,666.663 75.55,666.001 74.66,665.238C73.769,664.474 73.082,663.634 72.572,662.692C72.064,661.776 71.809,660.732 71.809,659.612C71.809,658.645 72.013,657.831 72.42,657.169C72.827,656.482 73.362,655.947 74.049,655.515C74.711,655.107 75.474,654.776 76.289,654.573C77.128,654.369 77.994,654.242 78.86,654.216" style="fill:rgb(191,215,61);fill-rule:nonzero;"/>
    </g>
    <g id="Trim">
    </g>
</svg>
